<svg id="visual" viewBox="0 0 900 450" width="900" height="450" xmlns="http://www.w3.org/2000/svg" xmlns:xlink="http://www.w3.org/1999/xlink" version="1.1"><rect x="0" y="0" width="900" height="450" fill="#FFFFFF"></rect><defs><linearGradient id="grad1_0" x1="50%" y1="0%" x2="100%" y2="100%"><stop offset="10%" stop-color="#ffffff" stop-opacity="1"></stop><stop offset="90%" stop-color="#ffffff" stop-opacity="1"></stop></linearGradient></defs><defs><linearGradient id="grad2_0" x1="0%" y1="0%" x2="50%" y2="100%"><stop offset="10%" stop-color="#ffffff" stop-opacity="1"></stop><stop offset="90%" stop-color="#ffffff" stop-opacity="1"></stop></linearGradient></defs><g transform="translate(900, 0)"><path d="M0 292.5C-23.5 281.7 -47 270.8 -70.9 264.7C-94.9 258.5 -119.3 257 -144 249.4C-168.7 241.8 -193.8 228.2 -206.8 206.8C-219.8 185.5 -220.7 156.5 -232.1 134C-243.5 111.5 -265.4 95.5 -277.2 74.3C-289 53 -290.8 26.5 -292.5 0L0 0Z" fill="#2E324D"></path></g><g transform="translate(0, 450)"><path d="M0 -292.5C23.5 -283.2 47.1 -274 71.7 -267.6C96.3 -261.1 121.9 -257.5 140.5 -243.4C159.1 -229.2 170.5 -204.5 186 -186C201.4 -167.4 220.9 -155 239 -138C257.1 -121 273.9 -99.5 282.5 -75.7C291.2 -51.9 291.9 -26 292.5 0L0 0Z" fill="#2E324D"></path></g></svg>