<svg version="1.2" xmlns="http://www.w3.org/2000/svg" viewBox="0 0 218 119" width="138" height="75"><defs><clipPath clipPathUnits="userSpaceOnUse" id="cp1"><path d="m-154-4761h1920v5222h-1920z"/></clipPath><clipPath clipPathUnits="userSpaceOnUse" id="cp2"><path d="m-0.21 0h218v119h-218z"/></clipPath></defs><style>.a{fill:#fff}</style><g clip-path="url(#cp1)"><g clip-path="url(#cp2)"><path class="a" d="m20.3 56.5l2-4.5c2.2 1.5 5.5 2.7 8.6 2.7 3.5 0 4.9-1.2 4.9-2.8 0-4.9-15-1.5-15-11.1 0-4.4 3.6-8.1 10.9-8.1 3.2 0 6.6 0.8 9 2.3l-1.9 4.6c-2.4-1.4-4.8-2.1-7.1-2.1-3.6 0-4.9 1.4-4.9 3 0 4.7 15 1.5 15 10.9 0 4.4-3.6 8-11 8-4.1 0-8.2-1.2-10.5-2.9z"/><path fill-rule="evenodd" class="a" d="m44.2 46.1c0-7.7 6-13.4 14.2-13.4 8.1 0 14.1 5.7 14.1 13.4 0 7.7-6 13.3-14.1 13.3-8.2 0-14.2-5.6-14.2-13.3zm22.3 0c0-4.9-3.5-8.3-8.1-8.3-4.6 0-8.1 3.4-8.1 8.3 0 4.9 3.5 8.3 8.1 8.3 4.6 0 8.1-3.4 8.1-8.3z"/><path class="a" d="m77 33.2h6v20.9h13v4.9h-19z"/><path class="a" d="m98.8 47.6v-14.4h5.9v14.2c0 4.9 2.2 7 5.8 7 3.7 0 5.8-2.1 5.8-7v-14.2h5.9v14.4c0 7.6-4.4 11.8-11.7 11.8-7.4 0-11.7-4.2-11.7-11.8z"/><path class="a" d="m133 38h-8.3v-4.8h22.5v4.8h-8.2v21h-6z"/><path class="a" d="m150.4 33.2h6v25.8h-6z"/><path fill-rule="evenodd" class="a" d="m160.9 46.1c0-7.7 6-13.4 14.2-13.4 8.1 0 14.1 5.7 14.1 13.4 0 7.7-6 13.3-14.1 13.3-8.2 0-14.2-5.6-14.2-13.3zm22.2 0c0-4.9-3.4-8.3-8-8.3-4.7 0-8.1 3.4-8.1 8.3 0 4.9 3.4 8.3 8.1 8.3 4.6 0 8-3.4 8-8.3z"/><path class="a" d="m217.4 33.2v25.8h-4.9l-12.9-15.7v15.7h-5.9v-25.8h4.9l12.9 15.7v-15.7z"/><path class="a" d="m28.5 67.8h-9.1v-2.3h20.9v2.3h-9.1v23.5h-2.7z"/><path fill-rule="evenodd" class="a" d="m70.5 84.4h-14.4l-3.1 6.9h-2.8l11.8-25.8h2.7l11.8 25.8h-2.9zm-1-2.2l-6.2-13.9-6.2 13.9z"/><path class="a" d="m90.5 65.5h2.7v23.5h14.5v2.3h-17.2z"/><path class="a" d="m129.9 79.2l-5.3 5.3v6.8h-2.7v-25.8h2.7v15.6l15.2-15.6h3.1l-11.2 11.7 12 14.1h-3.3z"/><path class="a" d="m101.7 100.8c-10.8 11-25.8 17.9-42.4 17.9-32.7 0-59.2-26.5-59.2-59.3 0-32.7 26.5-59.2 59.2-59.2 18.8 0 35.5 8.8 46.3 22.4h-4.1c-10.2-11.8-25.4-19.2-42.2-19.2-31 0-56.1 25.1-56.1 56 0 31 25.1 56.1 56.1 56.1 14.6 0 27.9-5.6 37.9-14.7z"/><path class="a" d="m47.6 77.4c0 2.2-1.7 3.9-3.9 3.9-2.1 0-3.8-1.7-3.8-3.9 0-2.1 1.7-3.9 3.8-3.9 2.2 0 3.9 1.8 3.9 3.9z"/><path class="a" d="m115.4 77.4c0 2.2-1.8 3.9-3.9 3.9-2.2 0-3.9-1.7-3.9-3.9 0-2.1 1.7-3.9 3.9-3.9 2.1 0 3.9 1.8 3.9 3.9z"/><path class="a" d="m83.5 77.4c0 2.2-1.8 3.9-3.9 3.9-2.2 0-3.9-1.7-3.9-3.9 0-2.1 1.7-3.9 3.9-3.9 2.1 0 3.9 1.8 3.9 3.9z"/></g></g></svg>